<?xml version="1.0" encoding="UTF-8"?>
<!DOCTYPE svg PUBLIC "-//W3C//DTD SVG 1.1//EN" "http://www.w3.org/Graphics/SVG/1.1/DTD/svg11.dtd">
<svg xmlns="http://www.w3.org/2000/svg" version="1.1" width="1000px" height="1000px" style="shape-rendering:geometricPrecision; text-rendering:geometricPrecision; image-rendering:optimizeQuality; fill-rule:evenodd; clip-rule:evenodd" xmlns:xlink="http://www.w3.org/1999/xlink">
<g><path fill="#00b300" stroke="#00b300" stroke-width="0.5" d="M 0,400 c 19.8,-0.05 39.59,0 59.37,0.14 c 0.47,0.32 0.68,0.77 0.64,1.34 c -0.06,5.97 -0.01,11.93 0.13,17.89 c 0.32,0.47 0.77,0.68 1.34,0.64 c 5.97,-0.06 11.93,-0.01 17.89,0.13 c 0.47,0.32 0.68,0.77 0.64,1.34 c -0.06,5.97 -0.01,11.93 0.13,17.89 c 0.32,0.47 0.77,0.68 1.34,0.64 c 5.97,-0.06 11.93,-0.01 17.89,0.13 c 0.47,0.32 0.68,0.77 0.64,1.34 c -0.06,5.97 -0.01,11.93 0.13,17.89 c 0.32,0.47 0.77,0.68 1.34,0.64 c 5.97,-0.06 11.93,-0.01 17.89,0.13 c 0.47,0.32 0.68,0.77 0.64,1.34 c -0.06,5.97 -0.01,11.93 0.13,17.89 c 0.32,0.47 0.77,0.68 1.34,0.64 c 5.97,-0.06 11.93,-0.01 17.89,0.13 c 0.47,0.32 0.68,0.77 0.64,1.34 c -0.06,5.97 -0.01,11.93 0.13,17.89 c 0.32,0.47 0.77,0.68 1.34,0.64 c 5.97,-0.06 11.93,-0.01 17.89,0.13 c 0.47,0.32 0.68,0.77 0.64,1.34 c -0.06,5.97 -0.01,11.93 0.13,17.89 c 0.32,0.47 0.77,0.68 1.34,0.64 c 5.68,-0.01 11.36,-0.01 17.04,0 c 0.97,-0.03 1.46,-0.52 1.49,-1.49 c -0.06,-39.3 -0.01,-78.6 0.13,-117.89 c 0.32,-0.47 0.77,-0.68 1.34,-0.64 c 12.35,0.01 24.69,0.01 37.04,0 c 1.35,0.26 1.85,1.09 1.5,2.49 c -0.02,58.68 -0.03,117.36 -0.01,176.04 c -0.03,0.97 -0.52,1.46 -1.49,1.49 c -5.68,-0.01 -11.36,-0.01 -17.04,-0.02 c -0.57,-0.04 -1.02,0.17 -1.34,0.64 c -0.14,5.96 -0.19,11.92 -0.13,17.89 c 0.04,0.57 -0.17,1.02 -0.64,1.34 c -6.25,0.19 -12.49,0.19 -18.74,0 c -0.47,-0.32 -0.68,-0.77 -0.64,-1.34 c 0.06,-5.97 0.01,-11.93 -0.13,-17.89 c -0.32,-0.47 -0.77,-0.68 -1.34,-0.64 c -5.97,0.06 -11.93,0.01 -17.89,-0.13 c -0.47,-0.32 -0.68,-0.77 -0.64,-1.34 c 0.06,-5.97 0.01,-11.93 -0.13,-17.89 c -0.32,-0.47 -0.77,-0.68 -1.34,-0.64 c -5.97,0.06 -11.93,0.01 -17.89,-0.13 c -0.47,-0.32 -0.68,-0.77 -0.64,-1.34 c 0.06,-5.97 0.01,-11.93 -0.13,-17.89 c -0.32,-0.47 -0.77,-0.68 -1.34,-0.64 c -5.97,0.06 -11.93,0.01 -17.89,-0.13 c -0.47,-0.32 -0.68,-0.77 -0.64,-1.34 c 0.06,-5.97 0.01,-11.93 -0.13,-17.89 c -0.32,-0.47 -0.77,-0.68 -1.34,-0.64 c -5.97,0.06 -11.93,0.01 -17.89,-0.13 c -0.47,-0.32 -0.68,-0.77 -0.64,-1.34 c 0.06,-5.97 0.01,-11.93 -0.13,-17.89 c -0.32,-0.47 -0.77,-0.68 -1.34,-0.64 c -5.97,0.06 -11.93,0.01 -17.89,-0.13 c -0.47,-0.32 -0.68,-0.77 -0.64,-1.34 c 0.06,-5.97 0.01,-11.93 -0.13,-17.89 c -0.32,-0.47 -0.77,-0.68 -1.34,-0.64 c -5.68,0.01 -11.36,0.01 -17.04,0 c -0.57,-0.04 -1.02,0.17 -1.34,0.64 c -0.09,32.91 -0.19,65.83 -0.28,98.74 c -0.32,0.47 -0.77,0.68 -1.34,0.64 c -5.97,-0.06 -11.93,-0.01 -17.89,0.13 c -0.47,0.32 -0.68,0.77 -0.64,1.34 c 0.01,5.68 0.01,11.36 0.02,17.04 c -0.03,0.97 -0.52,1.46 -1.49,1.49 c -5.68,-0.01 -11.36,-0.01 -17.04,0 c -0.57,0.04 -1.02,-0.17 -1.34,-0.64 c -0.14,-5.96 -0.19,-11.92 -0.13,-17.89 c 0.04,-0.57 -0.17,-1.02 -0.64,-1.34 c -6.45,-0.15 -12.91,-0.19 -19.37,-0.12 c 0,-60.01 0,-120.01 0,-180.02 Z M 239.99,483 c 0.13,-1.09 -0.4,-2.1 0.64,-2.87 c 5.96,-0.13 11.92,-0.17 17.89,-0.12 c 0.57,0.04 1.02,-0.17 1.34,-0.64 c 0.09,-12.91 0.19,-25.83 0.28,-38.74 c 1.31,-1.89 18.41,0.63 19.72,-1.26 c 0.14,-12.62 0.19,-25.26 0.13,-37.89 c -0.04,-0.57 0.17,-1.02 0.64,-1.34 c 46.25,-0.19 92.49,-0.19 138.74,0 c 1.89,1.31 -0.63,18.41 1.26,19.72 c 5.96,0.14 11.92,0.19 17.89,0.13 c 0.57,-0.04 1.02,0.17 1.34,0.64 c 0.19,12.91 0.19,25.83 0,38.74 c -0.32,0.47 -0.77,0.68 -1.34,0.64 c -12.63,0.04 -25.27,-0.01 -37.89,-0.15 c -0.47,-0.32 -0.68,-0.77 -0.64,-1.34 c 0.06,-5.97 0.01,-11.93 -0.13,-17.89 c -0.32,-0.47 -0.77,-0.68 -1.34,-0.64 c -25.97,-0.04 -51.93,0.01 -77.89,0.15 c -0.47,0.32 -0.68,0.77 -0.64,1.34 c 0.06,5.97 0.01,11.93 -0.13,17.89 c -1.31,1.89 -18.41,-0.63 -19.72,1.26 c -0.19,26.25 -0.19,52.49 0,78.74 c 0.32,0.47 0.77,0.68 1.34,0.64 c 5.97,-0.06 11.93,-0.01 17.89,0.13 c 1.89,1.31 -0.63,18.41 1.26,19.72 c 25.96,0.14 51.92,0.19 77.89,0.15 c 0.57,0.04 1.02,-0.17 1.34,-0.64 c 0.14,-5.96 0.19,-11.92 0.15,-17.89 c 0.04,-0.57 -0.17,-1.02 -0.64,-1.34 c -19.58,-0.09 -39.16,-0.19 -58.74,-0.28 c -0.47,-0.32 -0.68,-0.77 -0.64,-1.34 c 0.06,-5.97 0.01,-11.93 -0.13,-17.89 c -1.31,-1.89 -18.41,0.63 -19.72,-1.26 c -0.19,-6.25 -0.19,-12.49 0,-18.74 c 0.32,-0.47 0.77,-0.68 1.34,-0.64 c 5.97,0.06 11.93,0.01 17.89,-0.13 c 0.47,-0.32 0.68,-0.77 0.64,-1.34 c -0.06,-5.97 -0.01,-11.93 0.13,-17.89 c 0.32,-0.47 0.77,-0.68 1.34,-0.64 c 39.3,-0.04 78.6,0.01 117.89,0.15 c 0.47,0.32 0.68,0.77 0.64,1.34 c -0.01,12.35 -0.01,24.69 0,37.04 c -0.03,0.97 -0.52,1.46 -1.49,1.49 c -5.68,-0.01 -11.36,-0.01 -17.04,-0.02 c -0.57,-0.04 -1.02,0.17 -1.34,0.64 c -0.09,12.91 -0.19,25.83 -0.28,38.74 c -1.31,1.89 -18.41,-0.63 -19.72,1.26 c -0.14,12.62 -0.19,25.26 -0.13,37.89 c 0.04,0.57 -0.17,1.02 -0.64,1.34 c -46.25,0.19 -92.49,0.19 -138.74,0 c -0.47,-0.32 -0.68,-0.77 -0.64,-1.34 c 0.06,-12.63 0.01,-25.27 -0.13,-37.89 c -1.31,-1.89 -18.41,0.63 -19.72,-1.26 c -0.09,-12.91 -0.19,-25.83 -0.28,-38.74 c -1.31,-1.89 -18.41,0.63 -19.72,-1.26 c -0.14,-12.12 -0.19,-24.24 -0.15,-36.37 Z M 479.99,403 c 0.03,-1.18 -0.37,-3.17 1.49,-3.01 c 19.3,-0.04 38.6,0.01 57.89,0.15 c 0.47,0.32 0.68,0.77 0.64,1.34 c 0.04,19.3 -0.01,38.6 -0.15,57.89 c -0.32,0.47 -0.77,0.68 -1.34,0.64 c -19.3,0.04 -38.6,-0.01 -57.89,-0.15 c -0.47,-0.32 -0.68,-0.77 -0.64,-1.34 c 0.01,-18.51 0.01,-37.01 0,-55.52 Z M 559.99,403 c 0.03,-1.18 -0.37,-3.17 1.49,-3.01 c 12.35,0.01 24.69,0.01 37.04,0 c 0.57,-0.04 1.02,0.17 1.34,0.64 c 0.09,39.58 0.19,79.16 0.28,118.74 c 0.32,0.47 0.77,0.68 1.34,0.64 c 5.97,0.04 11.93,-0.01 17.89,-0.15 c 1.89,-1.31 -0.63,-18.41 1.26,-19.72 c 5.96,-0.14 11.92,-0.19 17.89,-0.13 c 0.57,0.04 1.02,-0.17 1.34,-0.64 c 0.14,-5.96 0.19,-11.92 0.13,-17.89 c -0.04,-0.57 0.17,-1.02 0.64,-1.34 c 5.96,-0.14 11.92,-0.19 17.89,-0.13 c 0.57,0.04 1.02,-0.17 1.34,-0.64 c 0.14,-5.96 0.19,-11.92 0.13,-17.89 c -0.04,-0.57 0.17,-1.02 0.64,-1.34 c 5.96,-0.14 11.92,-0.19 17.89,-0.13 c 0.57,0.04 1.02,-0.17 1.34,-0.64 c 0.14,-5.96 0.19,-11.92 0.13,-17.89 c -0.04,-0.57 0.17,-1.02 0.64,-1.34 c 5.96,-0.14 11.92,-0.19 17.89,-0.13 c 0.57,0.04 1.02,-0.17 1.34,-0.64 c 0.14,-5.96 0.19,-11.92 0.13,-17.89 c -0.04,-0.57 0.17,-1.02 0.64,-1.34 c 5.96,-0.14 11.92,-0.19 17.89,-0.13 c 0.57,0.04 1.02,-0.17 1.34,-0.64 c 0.14,-5.96 0.19,-11.92 0.13,-17.89 c -0.04,-0.57 0.17,-1.02 0.64,-1.34 c 12.91,-0.19 25.83,-0.19 38.74,0 c 0.58,0.66 0.8,1.44 0.65,2.34 c 0.03,65.64 -0.03,131.27 -0.16,196.89 c -0.66,0.58 -1.44,0.8 -2.34,0.65 c -12.02,-0.02 -24.03,-0.03 -36.04,-0.01 c -0.57,0.04 -1.02,-0.17 -1.34,-0.64 c -0.14,-39.29 -0.19,-78.59 -0.13,-117.89 c -0.03,-0.97 -0.52,-1.46 -1.49,-1.49 c -5.97,-0.04 -11.93,0.01 -17.89,0.15 c -1.89,1.31 0.63,18.41 -1.26,19.72 c -5.96,0.14 -11.92,0.19 -17.89,0.13 c -0.57,-0.04 -1.02,0.17 -1.34,0.64 c -0.14,5.96 -0.19,11.92 -0.13,17.89 c 0.04,0.57 -0.17,1.02 -0.64,1.34 c -5.96,0.14 -11.92,0.19 -17.89,0.13 c -0.57,-0.04 -1.02,0.17 -1.34,0.64 c -0.14,5.96 -0.19,11.92 -0.13,17.89 c 0.04,0.57 -0.17,1.02 -0.64,1.34 c -5.96,0.14 -11.92,0.19 -17.89,0.13 c -0.57,-0.04 -1.02,0.17 -1.34,0.64 c -0.14,5.96 -0.19,11.92 -0.13,17.89 c 0.04,0.57 -0.17,1.02 -0.64,1.34 c -5.96,0.14 -11.92,0.19 -17.89,0.13 c -0.57,-0.04 -1.02,0.17 -1.34,0.64 c -0.14,5.96 -0.19,11.92 -0.13,17.89 c 0.04,0.57 -0.17,1.02 -0.64,1.34 c -5.96,0.14 -11.92,0.19 -17.89,0.13 c -0.57,-0.04 -1.02,0.17 -1.34,0.64 c -0.14,5.96 -0.19,11.92 -0.13,17.89 c 0.04,0.57 -0.17,1.02 -0.64,1.34 c -12.91,0.19 -25.83,0.19 -38.74,0 c -0.58,-0.66 -0.8,-1.44 -0.65,-2.34 c 0.02,-64.84 0.03,-129.68 0.01,-194.52 Z M 779.99,403 c 0.03,-1.18 -0.37,-3.17 1.49,-3.01 c 12.63,-0.04 25.27,0.01 37.89,0.15 c 0.47,0.32 0.68,0.77 0.64,1.34 c -0.06,5.97 -0.01,11.93 0.13,17.89 c 1.31,1.89 18.41,-0.63 19.72,1.26 c 0.14,5.96 0.19,11.92 0.13,17.89 c -0.04,0.57 0.17,1.02 0.64,1.34 c 5.96,0.14 11.92,0.19 17.89,0.13 c 0.57,-0.04 1.02,0.17 1.34,0.64 c 0.14,5.96 0.19,11.92 0.13,17.89 c -0.04,0.57 0.17,1.02 0.64,1.34 c 12.91,0.19 25.83,0.19 38.74,0 c 1.89,-1.31 -0.63,-18.41 1.26,-19.72 c 5.96,-0.14 11.92,-0.19 17.89,-0.13 c 0.57,0.04 1.02,-0.17 1.34,-0.64 c 0.14,-5.96 0.19,-11.92 0.13,-17.89 c -0.04,-0.57 0.17,-1.02 0.64,-1.34 c 5.96,-0.14 11.92,-0.19 17.89,-0.13 c 0.57,0.04 1.02,-0.17 1.34,-0.64 c 0.14,-5.96 0.19,-11.92 0.13,-17.89 c -0.04,-0.57 0.17,-1.02 0.64,-1.34 c 12.91,-0.19 25.83,-0.19 38.74,0 c 0.47,0.32 0.68,0.77 0.64,1.34 c 0.04,12.63 -0.01,25.27 -0.15,37.89 c -0.32,0.47 -0.77,0.68 -1.34,0.64 c -5.97,-0.06 -11.93,-0.01 -17.89,0.13 c -0.47,0.32 -0.68,0.77 -0.64,1.34 c 0.06,5.97 0.01,11.93 -0.13,17.89 c -0.32,0.47 -0.77,0.68 -1.34,0.64 c -5.97,-0.06 -11.93,-0.01 -17.89,0.13 c -0.47,0.32 -0.68,0.77 -0.64,1.34 c 0.06,5.97 0.01,11.93 -0.13,17.89 c -1.31,1.89 -18.41,-0.63 -19.72,1.26 c -0.19,12.91 -0.19,25.83 0,38.74 c 1.31,1.89 18.41,-0.63 19.72,1.26 c 0.14,5.96 0.19,11.92 0.13,17.89 c -0.04,0.57 0.17,1.02 0.64,1.34 c 5.96,0.14 11.92,0.19 17.89,0.13 c 0.57,-0.04 1.02,0.17 1.34,0.64 c 0.14,5.96 0.19,11.92 0.13,17.89 c -0.04,0.57 0.17,1.02 0.64,1.34 c 5.96,0.14 11.92,0.19 17.89,0.13 c 0.57,-0.04 1.02,0.17 1.34,0.64 c 0.19,12.91 0.19,25.83 0,38.74 c -0.32,0.47 -0.77,0.68 -1.34,0.64 c -12.63,0.04 -25.27,-0.01 -37.89,-0.15 c -0.47,-0.32 -0.68,-0.77 -0.64,-1.34 c 0.06,-5.97 0.01,-11.93 -0.13,-17.89 c -0.32,-0.47 -0.77,-0.68 -1.34,-0.64 c -5.97,0.06 -11.93,0.01 -17.89,-0.13 c -0.47,-0.32 -0.68,-0.77 -0.64,-1.34 c 0.06,-5.97 0.01,-11.93 -0.13,-17.89 c -0.32,-0.47 -0.77,-0.68 -1.34,-0.64 c -5.97,0.06 -11.93,0.01 -17.89,-0.13 c -1.89,-1.31 0.63,-18.41 -1.26,-19.72 c -12.91,-0.19 -25.83,-0.19 -38.74,0 c -1.89,1.31 0.63,18.41 -1.26,19.72 c -5.96,0.14 -11.92,0.19 -17.89,0.13 c -0.57,-0.04 -1.02,0.17 -1.34,0.64 c -0.14,5.96 -0.19,11.92 -0.13,17.89 c 0.04,0.57 -0.17,1.02 -0.64,1.34 c -5.96,0.14 -11.92,0.19 -17.89,0.13 c -0.57,-0.04 -1.02,0.17 -1.34,0.64 c -0.14,5.96 -0.19,11.92 -0.13,17.89 c 0.04,0.57 -0.17,1.02 -0.64,1.34 c -12.91,0.19 -25.83,0.19 -38.74,0 c -0.47,-0.32 -0.68,-0.77 -0.64,-1.34 c -0.04,-12.63 0.01,-25.27 0.15,-37.89 c 0.32,-0.47 0.77,-0.68 1.34,-0.64 c 5.97,0.06 11.93,0.01 17.89,-0.13 c 0.47,-0.32 0.68,-0.77 0.64,-1.34 c -0.06,-5.97 -0.01,-11.93 0.13,-17.89 c 0.32,-0.47 0.77,-0.68 1.34,-0.64 c 5.97,0.06 11.93,0.01 17.89,-0.13 c 0.47,-0.32 0.68,-0.77 0.64,-1.34 c -0.06,-5.97 -0.01,-11.93 0.13,-17.89 c 0.32,-0.47 0.77,-0.68 1.34,-0.64 c 5.97,0.06 11.93,0.01 17.89,-0.13 c 0.47,-0.32 0.68,-0.77 0.64,-1.34 c -0.06,-5.97 -0.01,-11.93 0.13,-17.89 c 0.32,-0.47 0.77,-0.68 1.34,-0.64 c 5.97,0.06 11.93,0.01 17.89,-0.13 c 0.47,-0.32 0.68,-0.77 0.64,-1.34 c 0.04,-5.97 -0.01,-11.93 -0.15,-17.89 c -0.32,-0.47 -0.77,-0.68 -1.34,-0.64 c -5.97,0.06 -11.93,0.01 -17.89,-0.13 c -0.47,-0.32 -0.68,-0.77 -0.64,-1.34 c 0.06,-5.97 0.01,-11.93 -0.13,-17.89 c -0.32,-0.47 -0.77,-0.68 -1.34,-0.64 c -5.97,0.06 -11.93,0.01 -17.89,-0.13 c -0.47,-0.32 -0.68,-0.77 -0.64,-1.34 c 0.06,-5.97 0.01,-11.93 -0.13,-17.89 c -0.32,-0.47 -0.77,-0.68 -1.34,-0.64 c -5.97,0.06 -11.93,0.01 -17.89,-0.13 c -0.47,-0.32 -0.68,-0.77 -0.64,-1.34 c 0.06,-5.97 0.01,-11.93 -0.13,-17.89 c -0.32,-0.47 -0.77,-0.68 -1.34,-0.64 c -5.97,0.06 -11.93,0.01 -17.89,-0.13 c -0.47,-0.32 -0.68,-0.77 -0.64,-1.34 c 0.01,-5.17 0.01,-10.35 0,-15.52 Z M 479.99,483 c 0.03,-1.18 -0.37,-3.17 1.49,-3.01 c 19.01,0.01 38.03,0.01 57.04,0 c 0.57,-0.04 1.02,0.17 1.34,0.64 c 0.19,32.91 0.19,65.83 0,98.74 c -1.31,1.89 -18.41,-0.63 -19.72,1.26 c -0.14,5.96 -0.19,11.92 -0.13,17.89 c 0.04,0.57 -0.17,1.02 -0.64,1.34 c -12.62,0.14 -25.26,0.19 -37.89,0.15 c -0.57,0.04 -1.02,-0.17 -1.34,-0.64 c -0.14,-38.78 -0.19,-77.58 -0.15,-116.37 Z"/></g>
<g><path fill="#000000" fill-opacity="0.243" d="M 879.9,990 c -0.08,-0.99 0.19,-3.79 1.75,-2.13 c 1.04,1.88 1.98,3.82 2.81,5.8 c 0.98,-1.47 1.67,-5.39 3.26,-6.23 c 0.7,0.02 1.1,0.38 1.19,1.09 c 0.07,2 0.18,4 0.32,5.99 c -0.1,0.92 -0.6,1.34 -1.48,1.26 c -0.36,-0.93 -0.71,-1.84 -1.06,-2.73 c -0.73,0.72 -1.28,1.56 -1.66,2.53 c -0.37,0.3 -0.78,0.35 -1.21,0.13 c -0.57,-1.57 -1.37,-3.04 -2.4,-4.38 c -0.28,1.05 -0.36,2.13 -0.24,3.25 c -0.43,1.69 -0.85,1.68 -1.26,-0.03 c 0,-1.52 -0.01,-3.03 -0.02,-4.55 Z M 938.9,990 c -0.08,-0.99 0.19,-3.79 1.75,-2.13 c 1.03,1.88 1.97,3.8 2.83,5.76 c 1.02,-1.43 1.62,-5.36 3.24,-6.19 c 0.7,0.02 1.1,0.38 1.19,1.09 c 0.09,2 0.19,4 0.31,5.99 c -0.1,0.92 -0.59,1.34 -1.47,1.26 c -0.36,-0.92 -0.71,-1.84 -1.06,-2.73 c -0.73,0.72 -1.28,1.56 -1.66,2.53 c -0.37,0.3 -0.78,0.35 -1.21,0.13 c -0.57,-1.56 -1.36,-3 -2.38,-4.33 c -0.3,1.03 -0.39,2.09 -0.26,3.2 c -0.43,1.69 -0.85,1.68 -1.26,-0.03 c 0,-1.52 -0.01,-3.03 -0.02,-4.55 Z M 988.9,994.04 c -0.91,-6.1 4.09,-1.64 5.55,-6.83 c 1.39,1.47 0.53,6.21 0.51,8.21 c -1.29,1.42 -5.29,0.96 -6.06,-1.38 Z M 990.81,993 c -0.06,1.12 0.44,1.71 1.49,1.8 c 1.69,-1.01 1.15,-4.26 -0.66,-3.68 c -0.58,0.49 -0.85,1.12 -0.83,1.88 Z"/></g>
<g><path fill="#000000" fill-opacity="0.149" d="M 895.67,993.08 c 1.34,-2.24 1.31,-3.77 4.58,-3.4 c 0.39,-0.81 0.83,-1.58 1.35,-2.31 c 0.37,0.05 0.62,0.26 0.74,0.62 c -0.01,1.29 -0.01,2.58 0.02,3.87 c 0.19,0.06 0.39,0.13 0.58,0.2 c 0.71,-0.96 1.59,-1.71 2.63,-2.26 c 2.19,-0.49 3.48,0.36 3.88,2.54 c -1.27,0.76 -2.65,1.17 -4.15,1.26 c 0.1,2.17 2.17,0.99 3.24,0.43 c 0.53,0.65 0.47,1.26 -0.2,1.81 c -1.53,0.67 -2.89,0.46 -4.1,-0.62 c -0.18,-0.9 -0.58,-1.69 -1.19,-2.35 c -0.19,0.09 -0.39,0.18 -0.59,0.28 c -0.1,0.85 -0.19,1.7 -0.3,2.54 c -3.61,1.65 -4.94,0.43 -6.49,-2.61 Z M 982.78,994.09 c 0.53,-1.15 -0.32,-3.35 0.87,-4 c 6.6,-2.23 6.81,8.3 -0.11,5.94 c -0.6,-0.5 -0.86,-1.15 -0.76,-1.94 Z"/></g>
<g><path fill="#000000" fill-opacity="0.231" d="M 929.12,994 c 0.3,-1.79 0.36,-3.6 0.19,-5.41 c 0.06,-0.66 0.42,-1.04 1.06,-1.15 c 0.43,0.78 0.87,1.54 1.35,2.29 c 1.16,-0.05 2.18,0.27 3.05,0.98 c 0.28,1.21 0.88,4.43 -0.38,5.19 c -2.31,0.45 -0.27,-3.73 -2.08,-4.7 c -1.83,-0.55 -0.9,3.37 -1.41,4.22 c -1.19,1.44 -1.95,-0.29 -1.78,-1.42 Z M 921.95,990.99 c 0.05,-0.4 0.27,-0.67 0.65,-0.82 c 1.37,0.03 2.47,-0.49 3.31,-1.56 c 0.33,-0.23 0.64,-0.2 0.93,0.11 c 0.23,2.42 0.38,4.83 0.45,7.23 c -2.38,0.69 -1.35,-2.43 -1.63,-3.62 c -0.15,-0.88 -0.86,-1.93 -1.8,-0.9 c -0.36,1.29 -0.4,2.6 -0.12,3.92 c -0.55,1.22 -1.91,0.43 -1.77,-0.81 c 0.04,-1.18 0.03,-2.37 -0.02,-3.55 Z"/></g>
<g><path fill="#000000" fill-opacity="0.157" stroke="#000000" stroke-width="0.5" stroke-opacity="0.157" d="M 968.15,993 c 0.11,-1.17 -0.23,-4.83 0.71,-5.56 c 6.37,-1.89 5.2,2.49 6.14,6.07 c -0.25,4.12 -8.08,4.16 -6.85,-0.51 Z"/></g>
<g><path fill="#000000" fill-opacity="0.255" d="M 955.77,991 c 0.02,-0.85 0.06,-1.7 0.11,-2.55 c 0.37,-1.64 0.78,-1.63 1.24,0.02 c 0.04,0.69 0.04,1.37 -0.01,2.06 c -0.17,2.76 2.24,-1.95 3.55,-0.22 c -2.69,2.87 -1.29,3 0.09,5.18 c -0.26,0.41 -0.63,0.54 -1.11,0.38 c -2.1,-1.54 -1.58,-2.31 -3.17,-0.06 c -1,-0.74 -0.44,-3.62 -0.7,-4.81 Z M 889.99,994.01 c 0.17,-0.64 0.58,-0.9 1.25,-0.79 c 0.17,1.25 1.02,2.73 2.48,1.13 c 0.08,-0.98 0.08,-1.96 0,-2.94 c -0.95,-0.27 -1.9,-0.47 -2.87,-0.6 c 4.87,-4.46 6.05,5.42 2.7,5.41 c -1.69,0.11 -3.68,-0.01 -3.56,-2.21 Z M 948.99,994.01 c 0.17,-0.64 0.58,-0.9 1.25,-0.79 c 0.17,1.24 1.02,2.73 2.47,1.13 c 0.08,-0.98 0.08,-1.96 0.01,-2.95 c -0.95,-0.26 -1.91,-0.46 -2.87,-0.6 c 0.94,-1.23 3.04,-1.45 4.02,-0.14 c 0.83,3.11 1.17,6.59 -3.36,5.45 c -1.06,-0.3 -1.56,-1 -1.52,-2.1 Z"/></g>
<g><path fill="#000000" fill-opacity="0.137" d="M 961.17,991.7 c 3.48,-6.37 8.83,2.6 4.3,4.44 c -3.31,0.42 -4.75,-1.06 -4.3,-4.44 Z"/></g>
<g><path fill="#000000" fill-opacity="0.231" d="M 912.74,990.91 c 0.11,-0.39 0.37,-0.63 0.78,-0.7 c 0.61,0.54 1.21,1.06 1.8,1.57 c 0.87,-0.69 0.61,-1.98 2.03,-1.68 c 0.48,0.83 0.86,1.7 1.15,2.62 c 0.46,-0.79 0.9,-1.61 1.32,-2.45 c 1.42,-0.77 1.42,1.32 1.09,2.09 c -0.78,2.38 -1.44,5.69 -3.67,1.84 c -1.18,-0.33 -0.84,1.32 -1.89,1.71 c -1.76,0.59 -2.14,-3.95 -2.61,-5 Z"/></g>
<g><path fill="#000000" fill-opacity="0.161" d="M 975.85,993 c -0.01,-2.36 1.18,-3.48 3.56,-3.35 c 2.93,0.97 3.14,3.61 -0.71,3.65 c -2.98,3.39 2.57,-0.71 2.21,2 c -2.01,1.78 -5.42,0.85 -5.06,-2.3 Z"/></g>
</svg>
