<?xml version="1.0" encoding="UTF-8"?>
<!DOCTYPE svg PUBLIC "-//W3C//DTD SVG 1.1//EN" "http://www.w3.org/Graphics/SVG/1.1/DTD/svg11.dtd">
<svg xmlns="http://www.w3.org/2000/svg" version="1.1" width="1080px" height="1080px" style="shape-rendering:geometricPrecision; text-rendering:geometricPrecision; image-rendering:optimizeQuality; fill-rule:evenodd; clip-rule:evenodd" xmlns:xlink="http://www.w3.org/1999/xlink">
<g><path fill="#7979d2" stroke="#7979d2" stroke-width="0.5" d="M 1080,480.02 c 0,40 0,80 0,120 c -6.17,-0.02 -12.35,-0.03 -18.52,-0.03 c -0.57,-0.04 -1.02,0.17 -1.34,0.64 c -0.09,12.91 -0.19,25.83 -0.28,38.74 c -0.32,0.47 -0.77,0.68 -1.34,0.64 c -5.97,-0.06 -11.93,-0.01 -17.89,0.13 c -1.89,1.31 0.63,18.41 -1.26,19.72 c -5.96,0.14 -11.92,0.19 -17.89,0.13 c -0.57,-0.04 -1.02,0.17 -1.34,0.64 c -0.09,6.25 -0.19,12.49 -0.28,18.74 c -0.32,0.47 -0.77,0.68 -1.34,0.64 c -5.97,-0.06 -11.93,-0.01 -17.89,0.13 c -0.47,0.32 -0.68,0.77 -0.64,1.34 c 0.06,5.97 0.01,11.93 -0.13,17.89 c -1.31,1.89 -18.41,-0.63 -19.72,1.26 c -0.14,5.96 -0.19,11.92 -0.13,17.89 c 0.04,0.57 -0.17,1.02 -0.64,1.34 c -12.91,0.09 -25.83,0.19 -38.74,0.28 c -1.89,1.31 0.63,18.41 -1.26,19.72 c -12.91,0.09 -25.83,0.19 -38.74,0.28 c -1.89,1.31 0.63,18.41 -1.26,19.72 c -12.91,0.09 -25.83,0.19 -38.74,0.28 c -1.89,1.31 0.63,18.41 -1.26,19.72 c -19.58,0.09 -39.16,0.19 -58.74,0.28 c -1.89,1.31 0.63,18.41 -1.26,19.72 c -32.91,0.09 -65.83,0.19 -98.74,0.28 c -0.47,0.32 -0.68,0.77 -0.64,1.34 c 0.01,5.68 0.01,11.36 0.02,17.04 c -0.26,1.35 -1.09,1.85 -2.49,1.5 c -105.35,-0.02 -210.7,-0.03 -316.04,-0.01 c -0.57,0.04 -1.02,-0.17 -1.34,-0.64 c -0.14,-5.96 -0.19,-11.92 -0.13,-17.89 c 0.04,-0.57 -0.17,-1.02 -0.64,-1.34 c -32.91,-0.09 -65.83,-0.19 -98.74,-0.28 c -1.89,-1.31 0.63,-18.41 -1.26,-19.72 c -19.58,-0.09 -39.16,-0.19 -58.74,-0.28 c -1.89,-1.31 0.63,-18.41 -1.26,-19.72 c -12.91,-0.09 -25.83,-0.19 -38.74,-0.28 c -1.89,-1.31 0.63,-18.41 -1.26,-19.72 c -12.91,-0.09 -25.83,-0.19 -38.74,-0.28 c -1.89,-1.31 0.63,-18.41 -1.26,-19.72 c -12.91,-0.09 -25.83,-0.19 -38.74,-0.28 c -0.47,-0.32 -0.68,-0.77 -0.64,-1.34 c 0.06,-5.97 0.01,-11.93 -0.13,-17.89 c -0.32,-0.47 -0.77,-0.68 -1.34,-0.64 c -5.97,0.06 -11.93,0.01 -17.89,-0.13 c -0.47,-0.32 -0.68,-0.77 -0.64,-1.34 c 0.06,-5.97 0.01,-11.93 -0.13,-17.89 c -0.32,-0.47 -0.77,-0.68 -1.34,-0.64 c -5.97,0.06 -11.93,0.01 -17.89,-0.13 c -0.47,-0.32 -0.68,-0.77 -0.64,-1.34 c 0.06,-5.97 0.01,-11.93 -0.13,-17.89 c -0.32,-0.47 -0.77,-0.68 -1.34,-0.64 c -5.97,0.06 -11.93,0.01 -17.89,-0.13 c -1.89,-1.31 0.63,-18.41 -1.26,-19.72 c -5.96,-0.14 -11.92,-0.19 -17.89,-0.13 c -0.57,0.04 -1.02,-0.17 -1.34,-0.64 c -0.09,-12.91 -0.19,-25.83 -0.28,-38.74 c -0.32,-0.47 -0.77,-0.68 -1.34,-0.64 c -6.17,0 -12.35,0.01 -18.52,0.03 c 0,-40.01 0,-80.03 0,-120.05 c 6.17,0.03 12.35,0.04 18.52,0.04 c 0.57,0.04 1.02,-0.17 1.34,-0.64 c 0.09,-12.91 0.19,-25.83 0.28,-38.74 c 0.32,-0.47 0.77,-0.68 1.34,-0.64 c 5.97,0.06 11.93,0.01 17.89,-0.13 c 1.89,-1.31 -0.63,-18.41 1.26,-19.72 c 6.25,-0.09 12.49,-0.19 18.74,-0.28 c 1.89,-1.31 -0.63,-18.41 1.26,-19.72 c 6.25,-0.09 12.49,-0.19 18.74,-0.28 c 1.89,-1.31 -0.63,-18.41 1.26,-19.72 c 6.25,-0.09 12.49,-0.19 18.74,-0.28 c 1.89,-1.31 -0.63,-18.41 1.26,-19.72 c 12.91,-0.09 25.83,-0.19 38.74,-0.28 c 1.89,-1.31 -0.63,-18.41 1.26,-19.72 c 12.91,-0.09 25.83,-0.19 38.74,-0.28 c 1.89,-1.31 -0.63,-18.41 1.26,-19.72 c 12.91,-0.09 25.83,-0.19 38.74,-0.28 c 1.89,-1.31 -0.63,-18.41 1.26,-19.72 c 19.58,-0.09 39.16,-0.19 58.74,-0.28 c 1.89,-1.31 -0.63,-18.41 1.26,-19.72 c 32.91,-0.09 65.83,-0.19 98.74,-0.28 c 0.47,-0.32 0.68,-0.77 0.64,-1.34 c -0.06,-5.97 -0.01,-11.93 0.13,-17.89 c 0.32,-0.47 0.77,-0.68 1.34,-0.64 c 105.34,0.02 210.69,0.01 316.04,-0.01 c 1.4,-0.35 2.23,0.15 2.49,1.5 c -0.01,5.68 -0.01,11.36 -0.02,17.04 c -0.04,0.57 0.17,1.02 0.64,1.34 c 32.91,0.09 65.83,0.19 98.74,0.28 c 1.89,1.31 -0.63,18.41 1.26,19.72 c 19.58,0.09 39.16,0.19 58.74,0.28 c 1.89,1.31 -0.63,18.41 1.26,19.72 c 12.91,0.09 25.83,0.19 38.74,0.28 c 1.89,1.31 -0.63,18.41 1.26,19.72 c 12.91,0.09 25.83,0.19 38.74,0.28 c 1.89,1.31 -0.63,18.41 1.26,19.72 c 12.91,0.09 25.83,0.19 38.74,0.28 c 0.47,0.32 0.68,0.77 0.64,1.34 c -0.06,5.97 -0.01,11.93 0.13,17.89 c 0.32,0.47 0.77,0.68 1.34,0.64 c 5.97,-0.06 11.93,-0.01 17.89,0.13 c 1.89,1.31 -0.63,18.41 1.26,19.72 c 6.25,0.09 12.49,0.19 18.74,0.28 c 0.47,0.32 0.68,0.77 0.64,1.34 c -0.06,5.97 -0.01,11.93 0.13,17.89 c 1.31,1.89 18.41,-0.63 19.72,1.26 c 0.14,5.96 0.19,11.92 0.13,17.89 c -0.04,0.57 0.17,1.02 0.64,1.34 c 5.96,0.14 11.92,0.19 17.89,0.13 c 0.57,-0.04 1.02,0.17 1.34,0.64 c 0.09,12.91 0.19,25.83 0.28,38.74 c 0.32,0.47 0.77,0.68 1.34,0.64 c 6.17,-0.02 12.35,-0.01 18.52,0.01 Z M 659,620 c 0.24,-0.04 0.47,-0.09 0.71,-0.13 c 0.24,26.5 0.39,53 0.43,79.5 c 0.32,0.47 0.77,0.68 1.34,0.64 c 19.3,0.04 38.6,-0.01 57.89,-0.15 c 0.47,-0.32 0.68,-0.77 0.64,-1.34 c -0.01,-25.68 -0.01,-51.36 -0.02,-77.04 c -0.04,-0.57 0.17,-1.02 0.64,-1.34 c 46.25,-0.09 92.49,-0.19 138.74,-0.28 c 1.89,-1.31 -0.63,-18.41 1.26,-19.72 c 6.25,-0.09 12.49,-0.19 18.74,-0.28 c 1.89,-1.31 -0.63,-18.41 1.26,-19.72 c 6.25,-0.09 12.49,-0.19 18.74,-0.28 c 1.89,-1.31 -0.63,-18.41 1.26,-19.72 c 5.96,-0.14 11.92,-0.19 17.89,-0.13 c 0.57,0.04 1.02,-0.17 1.34,-0.64 c 0.19,-39.58 0.19,-79.16 0,-118.74 c -0.32,-0.47 -0.77,-0.68 -1.34,-0.64 c -5.97,0.06 -11.93,0.01 -17.89,-0.13 c -0.47,-0.32 -0.68,-0.77 -0.64,-1.34 c 0.06,-5.97 0.01,-11.93 -0.13,-17.89 c -0.32,-0.47 -0.77,-0.68 -1.34,-0.64 c -65.97,-0.04 -131.93,0.01 -197.89,0.15 c -0.47,0.32 -0.68,0.77 -0.64,1.34 c 0.06,32.63 0.01,65.27 -0.13,97.89 c -0.32,0.47 -0.77,0.68 -1.34,0.64 c -6.31,0.05 -12.62,-0.01 -18.92,-0.18 c -0.2,0.06 -0.4,0.11 -0.6,0.17 c 0.81,-0.61 1.15,-1.44 1.02,-2.48 c 0.03,-25.64 -0.03,-51.27 -0.16,-76.89 c -0.32,-0.47 -0.77,-0.68 -1.34,-0.64 c -5.97,0.06 -11.93,0.01 -17.89,-0.13 c -1.89,-1.31 0.63,-18.41 -1.26,-19.72 c -39.58,-0.09 -79.16,-0.19 -118.74,-0.28 c -0.47,-0.32 -0.68,-0.77 -0.64,-1.34 c 0.06,-25.97 0.01,-51.93 -0.13,-77.89 c -0.32,-0.47 -0.77,-0.68 -1.34,-0.64 c -19.01,0.01 -38.03,0.01 -57.04,0 c -0.57,-0.04 -1.02,0.17 -1.34,0.64 c -0.09,32.91 -0.19,65.83 -0.28,98.74 c -1.31,1.89 -18.41,-0.63 -19.72,1.26 c -0.09,32.91 -0.19,65.83 -0.28,98.74 c -0.32,0.47 -0.77,0.68 -1.34,0.64 c -6.03,0.03 -12.06,-0.01 -18.08,-0.13 c -0.17,0.17 -0.34,0.34 -0.51,0.51 c 0.02,26.33 0.09,52.66 0.21,78.98 c 0.32,0.47 0.77,0.68 1.34,0.64 c 19.3,0.04 38.6,-0.01 57.89,-0.15 c 0.47,-0.32 0.68,-0.77 0.64,-1.34 c -0.06,-19.3 -0.01,-38.6 0.13,-57.89 c 1.31,-1.89 18.41,0.63 19.72,-1.26 c 0.09,-32.91 0.19,-65.83 0.28,-98.74 c 0.32,-0.47 0.77,-0.68 1.34,-0.64 c 25.97,-0.04 51.93,0.01 77.89,0.15 c 0.47,0.32 0.68,0.77 0.64,1.34 c -0.06,5.97 -0.01,11.93 0.13,17.89 c 0.32,0.47 0.77,0.68 1.34,0.64 c 5.97,-0.06 11.93,-0.01 17.89,0.13 c 0.47,0.32 0.68,0.77 0.64,1.34 c -0.01,5.68 -0.01,11.36 0,17.04 c 0.04,0.57 -0.17,1.02 -0.64,1.34 c -5.96,0.14 -11.92,0.19 -17.89,0.13 c -0.57,-0.04 -1.02,0.17 -1.34,0.64 c -0.14,32.62 -0.19,65.26 -0.13,97.89 c 0.04,0.57 -0.17,1.02 -0.64,1.34 c -5.96,0.14 -11.92,0.19 -17.89,0.13 c -0.57,-0.04 -1.02,0.17 -1.34,0.64 c -0.19,6.25 -0.19,12.49 0,18.74 c 0.32,0.47 0.77,0.68 1.34,0.64 c 25.84,-0.01 51.68,-0.01 77.52,-0.01 Z M 179.99,603 c -0.04,32.13 0.01,64.25 0.15,96.37 c 0.32,0.47 0.77,0.68 1.34,0.64 c 19.3,0.04 38.6,-0.01 57.89,-0.15 c 0.47,-0.32 0.68,-0.77 0.64,-1.34 c -0.01,-25.68 -0.01,-51.36 -0.02,-77.04 c -0.04,-0.57 0.17,-1.02 0.64,-1.34 c 46.25,-0.09 92.49,-0.19 138.74,-0.28 c 0.47,-0.32 0.68,-0.77 0.64,-1.34 c -0.06,-5.97 -0.01,-11.93 0.13,-17.89 c 1.31,-1.89 18.41,0.63 19.72,-1.26 c 0.09,-6.25 0.19,-12.49 0.28,-18.74 c 1.31,-1.89 18.41,0.63 19.72,-1.26 c 0.09,-12.91 0.19,-25.83 0.28,-38.74 c 0.32,-0.47 0.77,-0.68 1.34,-0.64 c 5.67,0.01 11.35,0.01 17.02,0 c 0.92,-0.08 1.41,-0.57 1.49,-1.49 c 0.06,-25.96 0.01,-51.92 -0.13,-77.87 c -1.31,-1.89 -18.41,0.63 -19.72,-1.26 c -0.14,-5.96 -0.19,-11.92 -0.13,-17.89 c 0.04,-0.57 -0.17,-1.02 -0.64,-1.34 c -5.96,-0.14 -11.92,-0.19 -17.89,-0.13 c -0.57,0.04 -1.02,-0.17 -1.34,-0.64 c -0.14,-5.96 -0.19,-11.92 -0.13,-17.89 c 0.04,-0.57 -0.17,-1.02 -0.64,-1.34 c -59.58,-0.19 -119.16,-0.19 -178.74,0 c -0.47,0.32 -0.68,0.77 -0.64,1.34 c 0.06,25.97 0.01,51.93 -0.13,77.89 c -0.32,0.47 -0.77,0.68 -1.34,0.64 c -5.68,-0.01 -11.36,-0.01 -17.04,-0.02 c -0.97,0.03 -1.46,0.52 -1.49,1.49 c 0.06,32.63 0.01,65.27 -0.13,97.89 c -0.32,0.47 -0.77,0.68 -1.34,0.64 c -5.97,-0.05 -11.93,-0.01 -17.89,0.12 c -1.04,0.77 -0.52,1.78 -0.64,2.87 Z M 259.99,503 c 0.12,-1.09 -0.4,-2.1 0.64,-2.87 c 5.96,-0.13 11.92,-0.17 17.89,-0.12 c 0.57,0.04 1.02,-0.17 1.34,-0.64 c 0.14,-12.62 0.19,-25.26 0.13,-37.89 c -0.04,-0.57 0.17,-1.02 0.64,-1.34 c 26.25,-0.19 52.49,-0.19 78.74,0 c 0.47,0.32 0.68,0.77 0.64,1.34 c -0.06,5.97 -0.01,11.93 0.13,17.89 c 1.31,1.89 18.41,-0.63 19.72,1.26 c 0.19,19.58 0.19,39.16 0,58.74 c -1.31,1.89 -18.41,-0.63 -19.72,1.26 c -0.09,6.25 -0.19,12.49 -0.28,18.74 c -1.31,1.89 -18.41,-0.63 -19.72,1.26 c -0.14,5.96 -0.19,11.92 -0.13,17.89 c 0.04,0.57 -0.17,1.02 -0.64,1.34 c -26.25,0.19 -52.49,0.19 -78.74,0 c -0.47,-0.32 -0.68,-0.77 -0.64,-1.34 c 0.01,-25.17 0.01,-50.35 0,-75.52 Z M 739.99,523 c 0.12,-1.09 -0.4,-2.1 0.64,-2.87 c 5.96,-0.13 11.92,-0.17 17.89,-0.12 c 0.57,0.04 1.02,-0.17 1.34,-0.64 c 0.14,-19.29 0.19,-38.59 0.13,-57.89 c -0.04,-0.57 0.17,-1.02 0.64,-1.34 c 26.25,-0.19 52.49,-0.19 78.74,0 c 1.89,1.31 -0.63,18.41 1.26,19.72 c 5.96,0.14 11.92,0.19 17.89,0.13 c 0.57,-0.04 1.02,0.17 1.34,0.64 c 0.19,19.58 0.19,39.16 0,58.74 c -0.32,0.47 -0.77,0.68 -1.34,0.64 c -5.97,-0.06 -11.93,-0.01 -17.89,0.13 c -1.89,1.31 0.63,18.41 -1.26,19.72 c -5.96,0.14 -11.92,0.19 -17.89,0.13 c -0.57,-0.04 -1.02,0.17 -1.34,0.64 c -0.14,5.96 -0.19,11.92 -0.13,17.89 c 0.04,0.57 -0.17,1.02 -0.64,1.34 c -26.25,0.19 -52.49,0.19 -78.74,0 c -0.47,-0.32 -0.68,-0.77 -0.64,-1.34 c 0.01,-18.51 0.01,-37.01 0,-55.52 Z"/></g>
<g><path fill="#7979d2" stroke="#7979d2" stroke-width="0.5" d="M 679,520 c 0.2,-0.06 0.4,-0.11 0.6,-0.17 c 0.27,0.87 0.41,1.76 0.42,2.67 c 0.03,32.29 -0.03,64.58 -0.16,96.87 c -0.32,0.47 -0.77,0.68 -1.34,0.64 c -6.27,0.03 -12.54,-0.01 -18.81,-0.14 c -0.24,0.04 -0.47,0.09 -0.71,0.13 c 0.81,-0.61 1.15,-1.44 1.02,-2.48 c -0.07,-32.3 -0.03,-64.6 0.12,-96.89 c 0.32,-0.47 0.77,-0.68 1.34,-0.64 c 5.84,0.01 11.68,0.01 17.52,0.01 Z"/></g>
<g><path fill="#000000" fill-opacity="0.243" d="M 959.9,1070 c -0.08,-0.99 0.19,-3.79 1.75,-2.13 c 1.05,1.9 1.99,3.84 2.84,5.83 c 0.99,-1.49 1.6,-5.41 3.23,-6.26 c 0.7,0.02 1.1,0.38 1.19,1.09 c -0.32,1.59 1.75,7.62 -1.16,7.25 c -0.36,-0.93 -0.71,-1.84 -1.06,-2.73 c -0.73,0.72 -1.28,1.56 -1.66,2.53 c -1.64,1.24 -2.13,-1.66 -2.38,-2.62 c -0.3,-0.61 -0.71,-1.14 -1.23,-1.57 c -0.28,1.03 -0.36,2.09 -0.24,3.19 c -0.43,1.69 -0.85,1.68 -1.26,-0.03 c 0,-1.52 -0.01,-3.03 -0.02,-4.55 Z M 1018.9,1070 c -0.08,-0.99 0.19,-3.79 1.75,-2.13 c 1.06,1.88 1.99,3.83 2.78,5.83 c 1.12,-1.41 1.62,-5.44 3.29,-6.26 c 0.7,0.02 1.1,0.38 1.19,1.09 c -0.3,1.56 1.68,7.68 -1.17,7.25 c -0.35,-0.93 -0.7,-1.84 -1.05,-2.73 c -0.73,0.72 -1.28,1.56 -1.66,2.53 c -1.64,1.24 -2.13,-1.66 -2.38,-2.62 c -0.3,-0.61 -0.71,-1.13 -1.23,-1.56 c -0.28,1.02 -0.36,2.08 -0.24,3.18 c -0.43,1.69 -0.85,1.68 -1.26,-0.03 c 0,-1.52 -0.01,-3.03 -0.02,-4.55 Z M 1068.9,1074.04 c -0.91,-6.1 4.09,-1.64 5.55,-6.83 c 1.39,1.46 0.53,6.21 0.51,8.21 c -1.29,1.42 -5.29,0.96 -6.06,-1.38 Z M 1070.81,1073 c -0.06,1.12 0.44,1.71 1.49,1.8 c 1.69,-1.01 1.15,-4.27 -0.66,-3.68 c -0.58,0.49 -0.85,1.12 -0.83,1.88 Z"/></g>
<g><path fill="#000000" fill-opacity="0.149" d="M 975.6,1073.12 c 1.29,-2.4 1.49,-3.78 4.66,-3.44 c 0.37,-0.82 0.81,-1.59 1.34,-2.32 c 0.38,0.06 0.62,0.27 0.74,0.63 c -0.01,1.29 -0.01,2.58 0.02,3.87 c 0.19,0.06 0.39,0.13 0.59,0.2 c 0.69,-0.98 1.58,-1.71 2.65,-2.21 c 2.18,-0.52 3.47,0.32 3.85,2.49 c -1.27,0.73 -2.65,1.17 -4.13,1.32 c 0.09,2.16 2.19,0.87 3.2,0.33 c 1.69,1.93 -1.71,2.51 -3.01,2.13 c -2.25,-0.26 -1.02,-4.07 -3.05,-2.97 c -0.1,0.85 -0.2,1.7 -0.3,2.54 c -3.51,1.66 -4.97,0.39 -6.56,-2.57 Z M 1062.7,1074.09 c 0.7,-1.27 -0.32,-3.04 0.94,-3.99 c 6.14,-2.53 7.18,8.18 -0.09,5.92 c -0.61,-0.49 -0.9,-1.13 -0.85,-1.93 Z"/></g>
<g><path fill="#000000" fill-opacity="0.231" d="M 1009.12,1074 c 0.3,-1.79 0.36,-3.6 0.19,-5.41 c 0.06,-0.66 0.42,-1.04 1.06,-1.15 c 0.43,0.78 0.88,1.54 1.35,2.29 c 1.16,-0.05 2.18,0.27 3.05,0.98 c 0.29,1.21 0.88,4.43 -0.38,5.19 c -2.31,0.45 -0.27,-3.73 -2.08,-4.7 c -1.83,-0.55 -0.9,3.37 -1.41,4.22 c -1.19,1.44 -1.96,-0.29 -1.78,-1.42 Z M 1001.95,1070.99 c 0.05,-0.4 0.27,-0.67 0.65,-0.82 c 1.37,0.03 2.47,-0.49 3.31,-1.56 c 0.33,-0.24 0.64,-0.2 0.93,0.11 c 0.23,2.42 0.38,4.83 0.45,7.23 c -2.38,0.7 -1.35,-2.43 -1.63,-3.62 c -0.15,-0.88 -0.86,-1.93 -1.8,-0.9 c -0.36,1.29 -0.4,2.6 -0.12,3.92 c -0.55,1.23 -1.91,0.43 -1.77,-0.81 c 0.04,-1.18 0.03,-2.37 -0.02,-3.55 Z"/></g>
<g><path fill="#000000" fill-opacity="0.157" stroke="#000000" stroke-width="0.5" stroke-opacity="0.157" d="M 1048.15,1073 c -0.02,-1.47 0.05,-2.95 0.19,-4.42 c 0.06,-2.51 7.15,-2.71 6.02,2.76 c 3.21,6.27 -7.58,6.91 -6.21,1.66 Z"/></g>
<g><path fill="#000000" fill-opacity="0.255" d="M 1035.77,1071 c 0.02,-0.85 0.06,-1.7 0.11,-2.55 c 0.37,-1.64 0.78,-1.63 1.24,0.02 c 0.04,0.69 0.04,1.37 -0.01,2.06 c -0.18,2.79 2.3,-2.04 3.58,-0.18 c -2.75,2.75 -1.29,2.98 0.02,5.1 c -0.23,0.43 -0.59,0.57 -1.07,0.43 c -2.1,-1.55 -1.58,-2.33 -3.17,-0.07 c -1,-0.74 -0.45,-3.62 -0.7,-4.81 Z M 969.99,1074.01 c 0.17,-0.64 0.59,-0.9 1.25,-0.79 c 0.17,1.25 1.02,2.73 2.48,1.13 c 0.08,-0.98 0.06,-1.97 -0.03,-2.95 c -0.94,-0.25 -1.89,-0.45 -2.84,-0.6 c 4.9,-4.4 6.11,5.43 2.7,5.42 c -1.69,0.11 -3.68,-0.01 -3.56,-2.21 Z M 1028.99,1074.01 c 0.17,-0.64 0.59,-0.9 1.25,-0.79 c 0.17,1.24 1.02,2.73 2.48,1.13 c 0.06,-0.97 0.06,-1.94 -0.01,-2.91 c -0.94,-0.3 -1.89,-0.51 -2.86,-0.64 c 0.94,-1.24 3.04,-1.44 4.02,-0.14 c 0.83,3.11 1.17,6.59 -3.36,5.45 c -1.06,-0.3 -1.57,-1 -1.52,-2.1 Z"/></g>
<g><path fill="#000000" fill-opacity="0.137" d="M 1041.17,1071.7 c 1.85,-3.9 7.3,-2.41 5.57,3.53 c -2.65,2.83 -6.31,0.22 -5.57,-3.53 Z"/></g>
<g><path fill="#000000" fill-opacity="0.231" d="M 992.74,1070.91 c 0.11,-0.39 0.37,-0.63 0.78,-0.7 c 0.61,0.54 1.21,1.06 1.8,1.57 c 0.87,-0.68 0.61,-1.99 2.03,-1.68 c 0.48,0.8 0.85,1.65 1.14,2.54 c 0.47,-0.76 0.91,-1.55 1.33,-2.37 c 1.42,-0.77 1.42,1.32 1.1,2.09 c -0.79,2.38 -1.45,5.69 -3.68,1.84 c -1.18,-0.33 -0.84,1.32 -1.89,1.71 c -1.76,0.59 -2.14,-3.95 -2.61,-5 Z"/></g>
<g><path fill="#000000" fill-opacity="0.161" d="M 1055.85,1073 c 0.01,-2.43 1.23,-3.53 3.68,-3.32 c 2.92,1.1 2.85,3.59 -0.83,3.62 c -4.26,3.46 5.68,-1.16 1.67,2.56 c -2.63,0.69 -4.59,0.18 -4.52,-2.86 Z"/></g>
</svg>
